<?xml version="1.0" standalone="no"?>
<!DOCTYPE svg PUBLIC "-//W3C//DTD SVG 20010904//EN"
 "http://www.w3.org/TR/2001/REC-SVG-20010904/DTD/svg10.dtd">
<svg version="1.0" xmlns="http://www.w3.org/2000/svg"
 width="150.000000pt" height="150.000000pt" viewBox="0 0 150.000000 150.000000"
 preserveAspectRatio="xMidYMid meet">

<g transform="translate(0.000000,150.000000) scale(0.100000,-0.100000)"
fill="#000000" stroke="none">
<path d="M0 750 l0 -750 750 0 750 0 0 750 0 750 -750 0 -750 0 0 -750z m408
-47 l-3 -38 -102 -3 c-113 -3 -115 -4 -126 -73 -8 -56 -1 -60 107 -61 53 0 99
-4 101 -8 2 -4 2 -23 -2 -44 l-6 -37 -125 3 c-123 3 -125 3 -145 30 -24 32
-28 130 -8 191 22 67 47 77 188 77 l124 0 -3 -37z m318 15 c-3 -13 -6 -31 -6
-40 0 -16 -11 -18 -99 -18 -102 0 -140 -13 -73 -24 20 -3 68 -6 106 -6 66 0
68 -1 62 -22 -3 -13 -6 -30 -6 -38 0 -13 -17 -14 -106 -12 -98 3 -105 2 -102
-15 3 -16 15 -18 103 -19 85 -2 100 -4 99 -18 0 -9 -1 -27 -2 -41 l-2 -25
-124 0 c-123 0 -125 0 -145 26 -17 22 -21 41 -21 101 0 40 6 89 14 107 24 58
46 66 184 66 124 0 124 0 118 -22z m108 -65 c-4 -49 -8 -90 -10 -92 -2 -2 1
-10 7 -18 8 -9 39 -13 105 -13 91 0 94 -1 94 -22 0 -13 -3 -33 -6 -45 -6 -22
-10 -23 -128 -23 -172 1 -181 10 -164 188 l11 112 49 0 49 0 -7 -87z m319 25
c-4 -35 -8 -81 -8 -103 l0 -40 104 -3 c101 -3 103 -3 97 -25 -3 -12 -6 -32 -6
-44 0 -23 -2 -23 -124 -23 -159 0 -171 7 -171 102 0 34 4 93 9 131 l8 67 49 0
49 0 -7 -62z"/>
</g>
</svg>
